# xmcd CD database file
#
# Track frame offsets:
#	150
#	14035
#	30735
#	45602
#	61700
#	79015
#	95600
#	106267
#	118265
#	134385
#
# Disc length: 1966 seconds
#
# Revision: 0
# Processed by: cddbd v1.4PL0 Copyright (c) Steve Scherf et al.
# Submitted via: Feurio! 1.63 - http://www.feurio.com
#
DISCID=8107ac0a
DTITLE=Newman, Jimmy C. - More Cajun Music
DYEAR=1900
DGENRE=country
TTITLE0=Cochon De Lait
TTITLE1=Tawna Woo Woo
TTITLE2=Louisiana, The Key To My Soul
TTITLE3=Good Ole Boys From Louisiana
TTITLE4=Cajun Born
TTITLE5=Rhinestone Cajun Rides Again
TTITLE6=Louisiana
TTITLE7=The Ragin Cajun (Scattin' Cajun)
TTITLE8=Laughin' My Way Back To Lafayette
TTITLE9=My Toot Toot
EXTD=
EXTT0=
EXTT1=
EXTT2=
EXTT3=
EXTT4=
EXTT5=
EXTT6=
EXTT7=
EXTT8=
EXTT9=
PLAYORDER=
